<svg xmlns="http://www.w3.org/2000/svg"><symbol id="artboard-3" viewBox="0 0 960 560"><defs><style>.cls-1{fill:#fff}</style></defs><path d="M490.45 0l242.49 140v280L490.45 560 247.97 420V140L490.45 0z"/><path d="M357.55 383.46a4.35 4.35 0 0 1-4.6-4.6v-55.64h-60.7a4.6 4.6 0 0 1 0-9.2h34.49v-29.89a4.34 4.34 0 0 1 4.59-4.6h17.94A145.81 145.81 0 0 1 490 167.79c.46-.46.92-.46 1.84 0 68.05.46 124.62 48.28 139.8 111.74h17.93a4.34 4.34 0 0 1 4.59 4.6V314h34.5a4.6 4.6 0 0 1 0 9.2h-60.72v55.64a4.34 4.34 0 0 1-4.59 4.6zm-21.61-94.73V314H645v-25.27zm145.31-111.29c-58.86 3.68-108.06 46.45-122.32 102.09h49.2zm-119.1 145.78v51h123.7v-51zm123.7-136.58l-66.22 92.89h66.22zm9.2-9.66v102.55H622C607.71 222.51 556.21 179.28 495.05 177zm0 146.24v51h20.69v-51zm29.88 0v51h93.82v-51z" class="cls-1"/></symbol><symbol id="artboard-1" viewBox="0 0 960 560"><defs><style>.cls-1{fill:#fff}</style></defs><path d="M516.62 1.22l241.96 139.7v279.39L516.62 560 274.66 420.31V140.92L516.62 1.22z"/><path d="M379.88 393.94l-10.56-15.14c-.92-1.84-.92-4.13.46-5.51l38.08-45h-18.81a4.34 4.34 0 0 1-4.59-4.59v-33a4.34 4.34 0 0 1 4.59-4.59h26.61a128.21 128.21 0 0 1-5-34.87C410.62 192 459.26 143 519.36 143c59.2 0 108.29 49.09 108.29 108.29 0 11.47-1.37 23.86-5 34.87h26.61a4.34 4.34 0 0 1 4.59 4.59v33a4.34 4.34 0 0 1-4.59 4.59h-23.4l37.63 45a4.85 4.85 0 0 1 0 5.51l-10.56 15.14a4.89 4.89 0 0 1-6 1.38l-22-11.48h-217l-22 11.48a5 5 0 0 1-6.05-1.43zm69.74-65.62h-30.29L379 376l6.42 9.18 77.55-40.84zm-56-33v23.86h251v-23.89zm31.66-9.18H613a110.93 110.93 0 0 0 5.51-34.87 99.29 99.29 0 0 0-99.12-99.12c-54.6 0-99.57 44.51-99.57 99.12-.03 11.9.89 24.29 5.48 34.84zm44.05 65.61l-43.59 22.95h62.4zm-7.8-23.4l38.54 46.35h33l38.54-46.35zm102.32 23.4l-18.81 22.95h62.4zm50-23.4H583.6l-13.76 16.06 78 40.84 6.43-8.72z" class="cls-1"/></symbol><symbol id="artboard-2" viewBox="0 0 960 560"><defs><style>.cls-1{fill:#fff}</style></defs><path d="M468.23 0l240.91 139.09v278.19L468.23 556.37 227.31 417.28V139.09L468.23 0z"/><path d="M328.41 381a4.57 4.57 0 0 1 0-9.13h22.85v-28.82h-22.85a4.31 4.31 0 0 1-4.56-4.57v-90a4.31 4.31 0 0 1 4.56-4.57h30.16C360.85 179 409.28 143.4 468.22 143.4S575.58 179 577.87 243.91H608a4.32 4.32 0 0 1 4.57 4.57v90a4.31 4.31 0 0 1-4.57 4.57h-22.82v28.79H608a4.57 4.57 0 1 1 0 9.13zM333 253.05v80.87h270.46v-80.87zm27.42 90v28.79h29.24v-28.79zm7.31-99.14h201c-2.28-58.94-47.06-91.37-100.51-91.37S370 185 367.71 243.91zm31.06 99.14v28.79h45.69v-28.79zm54.83 0v28.79h29.24v-28.79zM577.41 312H465.94a4.57 4.57 0 1 1 0-9.14h111.47a4.57 4.57 0 1 1 0 9.14zM492 343.05v28.79h45.68v-28.79zm54.82 0v28.79H576v-28.79z" class="cls-1"/></symbol></svg>