<svg xmlns="http://www.w3.org/2000/svg"><symbol id="artboard-1" viewBox="0 0 960 560"><defs><style>.cls-1{fill:#fff}</style></defs><path d="M455.82 49.91l185.59 107.14v214.3L455.82 478.5 270.24 371.35v-214.3L455.82 49.91z"/><path d="M350.94 351.13l-8.1-11.62a3.69 3.69 0 0 1 .36-4.22l29.21-34.49H358a3.33 3.33 0 0 1-3.52-3.52v-25.34a3.33 3.33 0 0 1 3.52-3.52h20.41a98.47 98.47 0 0 1-3.87-26.75c0-45.4 37.31-83.06 83.41-83.06 45.4 0 83.06 37.66 83.06 83.06a86.54 86.54 0 0 1-3.87 26.75h20.41a3.32 3.32 0 0 1 3.52 3.52v25.34a3.32 3.32 0 0 1-3.52 3.52h-17.97l28.86 34.49a3.68 3.68 0 0 1 0 4.22l-8.09 11.62a3.74 3.74 0 0 1-4.58 1.05l-16.89-8.8H372.41l-16.9 8.8a3.83 3.83 0 0 1-4.57-1.05zm53.49-50.33h-23.22l-31 36.6 4.93 7 59.48-31.32zm-42.93-25.34v18.3H554v-18.3zm24.28-7h144a85 85 0 0 0 4.22-26.79 76.15 76.15 0 0 0-76-76c-41.88 0-76.37 34.14-76.37 76-.07 9.15.63 18.65 4.15 26.75zm33.79 50.33l-33.44 17.6H434zm-6-17.95l29.56 35.55h25.34l29.56-35.55zm78.48 17.95l-14.43 17.6h47.88zm38.36-17.95H507.2l-10.55 12.32 59.83 31.32 4.92-6.69z" class="cls-1"/></symbol><symbol id="artboard-3" viewBox="0 0 960 560"><defs><style>.cls-1{fill:#fff}</style></defs><path d="M503.62 48l187.75 108.4v216.8L503.62 481.6 315.87 373.2V156.4L503.62 48z"/><path d="M400.71 344.9a3.36 3.36 0 0 1-3.56-3.56v-43.08h-47a3.56 3.56 0 0 1 0-7.12h26.71V268a3.36 3.36 0 0 1 3.56-3.56h13.89a112.89 112.89 0 0 1 109-86.52c.36-.35.71-.35 1.42 0 52.7.36 96.49 37.39 108.25 86.52h13.88a3.36 3.36 0 0 1 3.56 3.56v23.15h26.7a3.56 3.56 0 1 1 0 7.12h-47v43.08a3.36 3.36 0 0 1-3.55 3.56zM384 271.56v19.58h239.25v-19.58zm112.51-86.17c-45.57 2.85-83.67 36-94.71 79h38.1zm-92.24 112.87v39.52h95.78v-39.52zm95.78-105.75l-51.27 71.92h51.27zm7.12-7.48v79.4h98.28c-11.04-44.15-50.92-77.62-98.28-79.43zm0 113.23v39.52h16v-39.52zm23.15 0v39.52H603v-39.52z" class="cls-1"/></symbol><symbol id="artboard-2" viewBox="0 0 960 560"><defs><style>.cls-1{fill:#fff}</style></defs><path d="M479.9 48.41l187.32 108.14v216.3L479.9 481 292.58 372.85v-216.3L479.9 48.41z"/><path d="M371.2 344.62a3.55 3.55 0 1 1 0-7.1H389v-22.38h-17.8a3.36 3.36 0 0 1-3.56-3.55v-70a3.36 3.36 0 0 1 3.56-3.56h23.44c1.78-50.44 39.43-78.15 85.26-78.15s83.48 27.71 85.25 78.15h23.45a3.36 3.36 0 0 1 3.55 3.56v70a3.35 3.35 0 0 1-3.55 3.55h-17.76v22.38h17.76a3.55 3.55 0 0 1 0 7.1zm3.55-99.46V308h210.3v-62.84zm21.31 70v22.38h22.74v-22.4zm5.69-77.09h156.3c-1.78-45.82-36.59-71-78.15-71s-76.38 25.16-78.15 70.98zm24.15 77.09v22.38h35.52v-22.4zm42.63 0v22.38h22.74v-22.4zM564.8 291h-86.68a3.55 3.55 0 0 1 0-7.1h86.68a3.55 3.55 0 1 1 0 7.1zm-66.43 24.16v22.38h35.52v-22.4zm42.63 0v22.38h22.73v-22.4z" class="cls-1"/></symbol></svg>