<svg xmlns="http://www.w3.org/2000/svg"><symbol id="artboard-1" viewBox="0 0 1000 1000"><defs><style>.cls-1{fill:#fff}</style></defs><path d="M493.15 0l433.01 250v500l-433.01 250L60.13 750V250L493.15 0z"/><path d="M248.43 702.81l-18.89-27.1c-1.64-3.28-1.64-7.39.82-9.85l68.16-80.47h-33.67c-4.93 0-8.21-3.29-8.21-8.22v-59.12c0-4.93 3.28-8.21 8.21-8.21h47.63a229.32 229.32 0 0 1-9-62.41c0-105.93 87.05-193.8 194.62-193.8 105.93 0 193.8 87.87 193.8 193.8 0 20.53-2.47 42.7-9 62.41h47.62c4.93 0 8.21 3.28 8.21 8.21v59.12c0 4.93-3.28 8.22-8.21 8.22h-41.95l67.34 80.47a8.63 8.63 0 0 1 0 9.85L737 702.81c-2.46 3.29-6.57 4.11-10.67 2.47l-39.42-20.53H298.52l-39.42 20.53a9 9 0 0 1-10.67-2.47zm124.81-117.42H319l-72.26 85.4 11.5 16.42 138.78-73.08zm-100.18-59.13V569h449.18v-42.7zm56.66-16.42h335.86a198.53 198.53 0 0 0 9.85-62.41c0-97.72-79.65-177.37-177.37-177.37s-178.19 79.65-178.19 177.37c0 21.35 1.64 43.57 9.85 62.41zm78.83 117.42l-78 41.06h111.67zm-14-41.87l69 82.93h59.15l69-82.93zm183.13 41.87l-33.67 41.06h111.71zm89.5-41.87H613l-24.63 28.74L728 687.21l11.49-15.6z" class="cls-1"/></symbol><symbol id="artboard-2" viewBox="0 0 1000 1000"><defs><style>.cls-1{fill:#fff}</style></defs><path d="M493.57 0l433.01 250v500l-433.01 250L60.56 750V250L493.57 0z"/><path d="M242.28 684.75c-4.11 0-8.21-4.11-8.21-8.21s4.1-8.22 8.21-8.22h41.06v-51.73h-41.06c-4.93 0-8.21-3.28-8.21-8.21V446.61c0-4.93 3.28-8.21 8.21-8.21h54.2c4.1-116.61 91.14-180.66 197.08-180.66s193 64.05 197.08 180.66h54.19c4.93 0 8.22 3.28 8.22 8.21v161.77c0 4.93-3.29 8.21-8.22 8.21h-41.05v51.73h41.05c4.11 0 8.22 4.11 8.22 8.22s-4.11 8.21-8.22 8.21zm8.21-229.93v145.35h486.14V454.82zm49.27 161.77v51.73h52.56v-51.73zM312.9 438.4h361.32c-4.11-105.94-84.58-164.24-180.66-164.24S317 332.46 312.9 438.4zm55.84 178.19v51.73h82.11v-51.73zm98.54 0v51.73h52.56v-51.73zm222.54-55.84H489.45c-4.1 0-8.21-4.11-8.21-8.21s4.11-8.21 8.21-8.21h200.37c4.11 0 8.2 4.1 8.2 8.21s-4.09 8.21-8.2 8.21zm-153.56 55.84v51.73h82.11v-51.73zm98.53 0v51.73h52.56v-51.73z" class="cls-1"/></symbol><symbol id="artboard-3" viewBox="0 0 1000 1000"><defs><style>.cls-1{fill:#fff}</style></defs><path d="M488.07 2l432.15 249.5v499L488.07 1000 55.92 750.5v-499L488.07 2z"/><path d="M251.21 685.38c-4.92 0-8.19-3.28-8.19-8.2V578H134.84c-4.1 0-8.19-4.1-8.19-8.2s4.09-8.19 8.19-8.19h61.46v-53.25c0-4.92 3.29-8.2 8.2-8.2h32c27-113.91 129.48-198.32 250.77-199.14.83-.82 1.65-.82 3.28 0 121.29.82 222.09 86.05 249.15 199.14h32c4.91 0 8.19 3.28 8.19 8.2v53.27h61.46c4.1 0 8.2 4.1 8.2 8.19s-4.1 8.2-8.2 8.2H733.09v99.16c0 4.92-3.27 8.2-8.19 8.2zm-38.52-168.82v45.07h550.73v-45.07zm259-198.33c-104.9 6.55-192.58 82.77-218 181.93h87.69zM259.41 578v91h220.45v-91zm220.45-243.4l-118 165.54h118zm16.39-17.21v182.77h226.19C697 398.54 605.25 321.51 496.25 317.41zm0 260.61v91h36.88v-91zm53.27 0v91H716.7v-91z" class="cls-1"/></symbol></svg>