<svg xmlns="http://www.w3.org/2000/svg"><symbol id="artboard-1" viewBox="0 0 960 560"><defs><style>.cls-1{fill:#fff}</style></defs><path d="M217 116.41l94.91 54.79v109.6L217 335.6l-94.91-54.8V171.2L217 116.41z"/><path d="M163.36 270.45l-4.14-5.94a1.89 1.89 0 0 1 .18-2.16l14.94-17.63H167a1.7 1.7 0 0 1-1.8-1.8V230a1.7 1.7 0 0 1 1.8-1.8h10.4a50.28 50.28 0 0 1-2-13.68 42.57 42.57 0 0 1 85.14 0 44.17 44.17 0 0 1-2 13.68H269a1.69 1.69 0 0 1 1.79 1.8v13a1.69 1.69 0 0 1-1.79 1.8h-9.18l14.76 17.63a1.91 1.91 0 0 1 0 2.16l-4.15 5.94a1.9 1.9 0 0 1-2.34.54l-8.63-4.5h-85.12L165.7 271a2 2 0 0 1-2.34-.55zm27.36-25.73h-11.88L163 263.44l2.52 3.59 30.42-16zm-22-13v9.36h98.46v-9.36zm12.42-3.6h73.66a43.52 43.52 0 0 0 2.2-13.64 39 39 0 0 0-77.94 0c-.06 4.68.32 9.52 2.12 13.68zm17.28 25.74l-17.1 9h24.48zm-3.06-9.18l15.12 18.18h13l15.12-18.18zm40.14 9.18l-7.38 9h24.48zm19.62-9.18h-11.84l-5.4 6.3 30.6 16 2.51-3.42z" class="cls-1"/></symbol><symbol id="artboard-2" viewBox="0 0 960 560"><defs><style>.cls-1{fill:#fff}</style></defs><path d="M465.31 116.41l94.91 54.79v109.6l-94.91 54.8-94.91-54.8V171.2l94.91-54.79z"/><path d="M410.23 266.49a1.8 1.8 0 1 1 0-3.59h9v-11.34h-9a1.7 1.7 0 0 1-1.8-1.8V214.3a1.7 1.7 0 0 1 1.8-1.8h11.88c.9-25.56 20-39.6 43.2-39.6s42.29 14 43.2 39.6h11.87a1.7 1.7 0 0 1 1.8 1.8v35.46a1.7 1.7 0 0 1-1.8 1.8h-9v11.34h9a1.8 1.8 0 1 1 0 3.59zM412 216.1V248h106.59v-31.9zm10.8 35.46v11.34h11.52v-11.34zm2.88-39.06h79.2c-.9-23.22-18.54-36-39.6-36s-38.67 12.78-39.57 36zM438 251.56v11.34h18v-11.34zm21.6 0v11.34h11.52v-11.34zm48.78-12.24h-43.97a1.8 1.8 0 0 1 0-3.6h43.92a1.8 1.8 0 0 1 0 3.6zm-33.66 12.24v11.34h18v-11.34zm21.6 0v11.34h11.51v-11.34z" class="cls-1"/></symbol><symbol id="artboard-3" viewBox="0 0 960 560"><defs><style>.cls-1{fill:#fff}</style></defs><path d="M449.62 116.41l94.91 54.79v109.6l-94.91 54.8-94.91-54.8V171.2l94.91-54.79z"/><path d="M397.6 266.49a1.7 1.7 0 0 1-1.8-1.8v-21.77H372a1.8 1.8 0 0 1 0-3.6h13.5v-11.7a1.7 1.7 0 0 1 1.8-1.8h7a57.07 57.07 0 0 1 55.08-43.74c.18-.18.36-.18.72 0a56.86 56.86 0 0 1 54.72 43.74h7a1.69 1.69 0 0 1 1.79 1.8v11.7h13.5a1.8 1.8 0 0 1 0 3.6h-23.68v21.77a1.69 1.69 0 0 1-1.79 1.8zm-8.46-37.07v9.9h121v-9.9zM446 185.86c-23 1.44-42.3 18.18-47.88 40h19.28zm-46.6 57.06v20h48.42v-20zm48.42-53.46l-25.92 36.36h25.92zm3.6-3.78v40.14h49.67a53.49 53.49 0 0 0-49.67-40.14zm0 57.24v20h8.1v-20zm11.7 0v20h36.71v-20z" class="cls-1"/></symbol></svg>